<?xml version="1.0" encoding="UTF-8" standalone="no"?>
<!DOCTYPE svg PUBLIC "-//W3C//DTD SVG 1.1//EN" "http://www.w3.org/Graphics/SVG/1.1/DTD/svg11.dtd">
<svg width="100%" height="100%" viewBox="0 0 512 512" version="1.1" xmlns="http://www.w3.org/2000/svg" xmlns:xlink="http://www.w3.org/1999/xlink" xml:space="preserve" xmlns:serif="http://www.serif.com/" style="fill-rule:evenodd;clip-rule:evenodd;stroke-linejoin:round;stroke-miterlimit:2;">
    <g transform="matrix(1.82436,0,0,1.8726,-241.611,-344.615)">
        <path d="M413.083,192.233C413.083,187.706 409.311,184.031 404.664,184.031L140.856,184.031C136.209,184.031 132.436,187.706 132.436,192.233L132.436,449.245C132.436,453.773 136.209,457.448 140.856,457.448L404.664,457.448C409.311,457.448 413.083,453.773 413.083,449.245L413.083,192.233Z" style="fill:rgb(65,184,131);"/>
    </g>
    <g transform="matrix(0.885513,0,0,0.885513,51.503,-3.55781)">
        <g transform="matrix(1.12929,0,0,1.12929,-61.2799,-30.2727)">
            <g transform="matrix(96,0,0,96,131.227,488.246)">
                <path d="M0.059,-0L0.059,-0.111L0.318,-0.35C0.34,-0.372 0.358,-0.391 0.373,-0.408C0.388,-0.425 0.4,-0.442 0.408,-0.458C0.415,-0.475 0.419,-0.493 0.419,-0.512C0.419,-0.533 0.415,-0.551 0.405,-0.567C0.395,-0.582 0.382,-0.594 0.365,-0.603C0.348,-0.611 0.329,-0.615 0.308,-0.615C0.286,-0.615 0.266,-0.611 0.25,-0.602C0.233,-0.593 0.22,-0.58 0.211,-0.563C0.202,-0.546 0.198,-0.526 0.198,-0.503L0.052,-0.503C0.052,-0.551 0.063,-0.592 0.084,-0.627C0.106,-0.662 0.136,-0.689 0.175,-0.708C0.214,-0.728 0.258,-0.737 0.309,-0.737C0.361,-0.737 0.406,-0.728 0.445,-0.71C0.484,-0.691 0.514,-0.666 0.536,-0.634C0.557,-0.601 0.568,-0.564 0.568,-0.522C0.568,-0.495 0.562,-0.467 0.552,-0.441C0.541,-0.414 0.522,-0.384 0.494,-0.352C0.467,-0.319 0.428,-0.28 0.378,-0.235L0.272,-0.131L0.272,-0.126L0.577,-0.126L0.577,-0L0.059,-0Z" style="fill:rgb(52,73,94);fill-rule:nonzero;"/>
            </g>
            <g transform="matrix(96,0,0,96,191.704,488.246)">
                <path d="M0.344,0.016C0.283,0.016 0.231,0.001 0.187,-0.029C0.143,-0.059 0.109,-0.102 0.085,-0.159C0.062,-0.215 0.05,-0.283 0.05,-0.363C0.05,-0.442 0.062,-0.51 0.086,-0.566C0.109,-0.622 0.143,-0.664 0.187,-0.693C0.231,-0.723 0.283,-0.737 0.344,-0.737C0.405,-0.737 0.457,-0.723 0.501,-0.693C0.545,-0.664 0.579,-0.621 0.603,-0.566C0.626,-0.51 0.638,-0.442 0.638,-0.363C0.638,-0.283 0.626,-0.215 0.602,-0.158C0.579,-0.102 0.545,-0.059 0.501,-0.029C0.458,0.001 0.405,0.016 0.344,0.016ZM0.344,-0.112C0.386,-0.112 0.419,-0.132 0.444,-0.174C0.469,-0.216 0.481,-0.279 0.481,-0.363C0.481,-0.418 0.475,-0.464 0.464,-0.501C0.453,-0.537 0.437,-0.565 0.416,-0.583C0.396,-0.602 0.372,-0.611 0.344,-0.611C0.303,-0.611 0.27,-0.59 0.245,-0.549C0.22,-0.508 0.207,-0.446 0.207,-0.363C0.207,-0.307 0.213,-0.26 0.224,-0.223C0.235,-0.186 0.251,-0.158 0.272,-0.139C0.292,-0.121 0.316,-0.112 0.344,-0.112Z" style="fill:rgb(52,73,94);fill-rule:nonzero;"/>
            </g>
            <g transform="matrix(96,0,0,96,257.773,488.246)">
                <path d="M0.048,-0.128L0.048,-0.249L0.352,-0.727L0.456,-0.727L0.456,-0.56L0.394,-0.56L0.203,-0.257L0.203,-0.251L0.634,-0.251L0.634,-0.128L0.048,-0.128ZM0.397,-0L0.397,-0.165L0.4,-0.218L0.4,-0.727L0.544,-0.727L0.544,-0L0.397,-0Z" style="fill:rgb(52,73,94);fill-rule:nonzero;"/>
            </g>
            <g transform="matrix(96,0,0,96,322.852,488.246)">
                <path d="M0.33,0.01C0.276,0.01 0.227,0.001 0.184,-0.017C0.142,-0.035 0.109,-0.059 0.085,-0.09C0.06,-0.121 0.048,-0.156 0.048,-0.196C0.048,-0.226 0.055,-0.254 0.069,-0.279C0.083,-0.305 0.102,-0.326 0.126,-0.343C0.15,-0.36 0.176,-0.371 0.206,-0.375L0.206,-0.38C0.167,-0.388 0.136,-0.407 0.112,-0.437C0.087,-0.467 0.075,-0.502 0.075,-0.542C0.075,-0.579 0.086,-0.613 0.108,-0.642C0.13,-0.672 0.161,-0.695 0.199,-0.712C0.238,-0.729 0.281,-0.737 0.33,-0.737C0.379,-0.737 0.423,-0.729 0.461,-0.712C0.5,-0.695 0.53,-0.671 0.552,-0.642C0.574,-0.612 0.585,-0.579 0.586,-0.542C0.585,-0.502 0.573,-0.467 0.549,-0.437C0.524,-0.407 0.493,-0.388 0.455,-0.38L0.455,-0.375C0.484,-0.371 0.51,-0.36 0.534,-0.343C0.558,-0.326 0.577,-0.305 0.591,-0.279C0.605,-0.254 0.612,-0.226 0.613,-0.196C0.612,-0.156 0.6,-0.121 0.576,-0.09C0.552,-0.059 0.519,-0.035 0.476,-0.017C0.434,0.001 0.385,0.01 0.33,0.01ZM0.33,-0.103C0.355,-0.103 0.376,-0.107 0.394,-0.116C0.412,-0.125 0.427,-0.137 0.437,-0.153C0.447,-0.169 0.452,-0.187 0.452,-0.208C0.452,-0.229 0.447,-0.247 0.436,-0.264C0.426,-0.28 0.411,-0.293 0.393,-0.302C0.375,-0.311 0.354,-0.316 0.33,-0.316C0.307,-0.316 0.286,-0.311 0.267,-0.302C0.249,-0.293 0.234,-0.28 0.224,-0.264C0.213,-0.247 0.208,-0.229 0.208,-0.208C0.208,-0.187 0.213,-0.169 0.223,-0.153C0.234,-0.137 0.248,-0.125 0.266,-0.116C0.285,-0.107 0.306,-0.103 0.33,-0.103ZM0.33,-0.428C0.351,-0.428 0.369,-0.432 0.385,-0.44C0.4,-0.449 0.413,-0.46 0.422,-0.475C0.431,-0.489 0.435,-0.506 0.435,-0.526C0.435,-0.545 0.431,-0.561 0.422,-0.575C0.413,-0.59 0.401,-0.601 0.385,-0.609C0.369,-0.617 0.351,-0.621 0.33,-0.621C0.31,-0.621 0.291,-0.617 0.276,-0.609C0.26,-0.601 0.247,-0.59 0.238,-0.575C0.23,-0.561 0.225,-0.545 0.225,-0.526C0.225,-0.506 0.23,-0.489 0.239,-0.475C0.248,-0.46 0.26,-0.449 0.276,-0.44C0.292,-0.432 0.31,-0.428 0.33,-0.428Z" style="fill:rgb(52,73,94);fill-rule:nonzero;"/>
            </g>
        </g>
        <g transform="matrix(1.97492,-5.19188e-32,-5.19188e-32,-1.97492,275.706,88.1119)">
            <path d="M0,0L-22.669,-39.264L-45.338,0L-120.829,0L-22.669,-170.02L75.491,0L0,0Z" style="fill:rgb(52,73,94);fill-rule:nonzero;"/>
        </g>
    </g>
</svg>
